# xmcd
#
# Track frame offsets:
#	150
#	12352
#	27275
#	43995
#	59250
#	78052
#	92005
#	106227
#	118230
#	130247
#	144425
#
# Disc length: 2191 seconds
#
# Revision: 0
# Processed by: cddbd v1.5.2PL0 Copyright (c) Steve Scherf et al.
# Submitted via: audiograbber 1.83.01
#
DISCID=8d088d0b
DTITLE=Nanci Griffith - Little Love Affairs
DYEAR=1988
DGENRE=Country/Folk
TTITLE0=Anyone Can Be Somebody's Fool
TTITLE1=I Knew Love
TTITLE2=Never Mind
TTITLE3=Love Wore A Halo (Back Before The War)
TTITLE4=So Long Ago
TTITLE5=Gulf Coast Highway [with Mac McAnally]
TTITLE6=Little Love Affairs
TTITLE7=I Wish It Would Rain
TTITLE8=Outbound Plane
TTITLE9=I Would Change My Life
TTITLE10=Sweet Dreams Will Come [with John Stewart]
EXTD=
EXTT0=
EXTT1=
EXTT2=
EXTT3=
EXTT4=
EXTT5=
EXTT6=
EXTT7=
EXTT8=
EXTT9=
EXTT10=
PLAYORDER=
